<svg xmlns="http://www.w3.org/2000/svg" width="1800" height="279" viewBox="0 0 1800 279" version="1.1"><path d="" stroke="none" fill="#9c1c1c" fill-rule="evenodd"/><path d="M 1791.165 2.398 C 1786.943 3.032, 1784.184 3.879, 1784.665 4.394 C 1785.152 4.915, 1784.041 5.020, 1782 4.645 C 1780.075 4.292, 1779.048 4.357, 1779.717 4.790 C 1780.810 5.497, 1630.428 48.155, 1627.236 48.044 C 1626.541 48.020, 1625.191 48.442, 1624.236 48.983 C 1622.490 49.971, 1610.928 53.424, 1597 57.117 C 1592.875 58.210, 1580.725 61.596, 1570 64.640 C 1559.275 67.684, 1549.600 70.277, 1548.500 70.402 C 1547.400 70.527, 1544.475 71.359, 1542 72.251 C 1539.525 73.143, 1530.075 75.915, 1521 78.412 C 1501.552 83.762, 1456.557 96.368, 1436 102.227 C 1417.518 107.494, 1417.819 107.495, 1335 102.134 C 1300.075 99.874, 1264.075 97.590, 1255 97.059 C 1245.925 96.528, 1195.750 93.382, 1143.500 90.068 C 1091.250 86.754, 951.300 77.956, 832.500 70.517 C 713.700 63.077, 614.475 56.784, 612 56.531 C 609.525 56.279, 599.175 55.606, 589 55.036 C 578.825 54.466, 563.300 53.537, 554.500 52.970 C 545.700 52.404, 466.500 47.449, 378.500 41.959 C 290.500 36.469, 186.550 29.958, 147.500 27.489 C 108.450 25.021, 72.225 22.816, 67 22.589 C 57.319 22.170, 16.178 19.445, 5.750 18.533 L 0 18.031 0 148.516 L 0 279.001 900.250 278.751 L 1800.500 278.500 1800.807 156 C 1801.095 40.995, 1800.664 0.799, 1799.144 1.148 C 1798.790 1.229, 1795.199 1.792, 1791.165 2.398 M 0.485 148.500 C 0.485 220.550, 0.604 249.877, 0.750 213.672 C 0.895 177.467, 0.895 118.517, 0.750 82.672 C 0.604 46.827, 0.485 76.450, 0.485 148.500" stroke="none" fill="#9c2424" fill-rule=""/></svg>